<svg xmlns="http://www.w3.org/2000/svg" viewBox="0 0 512 512"><path d="M471 40.7H41c-22.6 0-41 18.4-41 41v269.7c0 22.7 18.4 41 41 41h128.7l-5.3 33.6h-47.8c-4.2 0-7.6 3.4-7.6 7.6v30c0 4.3 3.4 7.7 7.6 7.7h278.8c4.2 0 7.6-3.4 7.6-7.6v-30c0-4.3-3.4-7.7-7.6-7.7h-47.8l-5.3-33.5H370c4.3 0 7.7-3.4 7.7-7.6s-3.4-8-7.6-8H42c-14.5 0-26-12-26-26V82c0-14.3 11.5-26 26-26h429c14.3 0 26 11.7 26 26v269.6c0 14.3-11.7 26-26 26h-65.3c-4.2 0-7.6 3.3-7.6 7.5s4 8 8 8h65c23 0 41-18 41-41V82c0-22.7-18-41-41-41zM185 392.5h142l5 33.5H179.8l5.3-33.5zm156.2 48.7h46.6v15H124.2v-15h217z"/><path d="M471 71H138.4c-4.2 0-7.6 3.5-7.6 7.7s3.3 7.6 7.5 7.6h328V347h-421V86.2H103c4.2 0 7.6-3.4 7.6-7.6S107.2 71 103 71H41c-5.8 0-10.6 5-10.6 10.8v269.6c0 6 4.8 10.7 10.7 10.7h430c6 0 11-4 11-10V82c0-6-5-10.7-10-10.7z"/><path d="M72.2 100.3c-.7 0-1.4 0-2 .4l-9 5.5c-1.3.8-2 2-2 3.6 0 2 1.5 4.2 3.4 4.2.5 0 1-.2 1.7-.6l2-1.2v34.6c0 2.2 2.7 3.2 5.3 3.2s5.3-1 5.3-3.2v-43.2c0-2-3-3.3-5-3.3zm31.8 0c-.7 0-1.4 0-2 .4l-9 5.5c-1.2.8-1.8 2-1.8 3.6 0 2 1.3 4.2 3.3 4.2.5 0 1-.2 1.7-.6l2-1.2v34.6c0 2.2 2.6 3.2 5.3 3.2 2.6 0 5.2-1 5.2-3.2v-43.2c0-2-2.5-3.3-4.6-3.3zm38.4 0c-9.4 0-16.6 4.4-16.6 16v18c0 11.8 7.2 16 16.6 16 9.4 0 16.7-4.2 16.7-16v-18c0-11.6-7-16-16-16zm6 34c0 4.8-2.2 7-6 7s-6-2-6-7v-18c0-4.6 2.2-6.7 6-6.7s6 2 6 6.8v18zm43.6-34c-9.4 0-16.7 4.4-16.7 16v18c0 11.8 7.3 16 16.7 16 9.4 0 16.7-4.2 16.7-16v-18c0-11.6-7.3-16-16.7-16zm6 34c0 4.8-2.2 7-6 7s-6-2-6-7v-18c0-4.6 2.2-6.7 6-6.7s6 2 6 6.8v18zm37-34c-.7 0-1.4 0-2 .4l-9 5.5c-1.3.8-2 2-2 3.6 0 2 1.5 4.2 3.4 4.2.5 0 1-.2 1.7-.6l2-1.2v34.6c0 2.2 3 3.2 6 3.2s6-1 6-3.2v-43.2c0-2-2-3.3-4-3.3zm38.4 0c-9.4 0-16.7 4.4-16.7 16v18c0 11.8 7.3 16 16.7 16 9.4 0 16.7-4.2 16.7-16v-18c0-11.6-7-16-16-16zm6 34c0 4.8-2.2 7-6 7s-6-2-6-7v-18c0-4.6 2.2-6.7 6-6.7s6 2 6 6.8v18zm37-34c-.7 0-1.4 0-2 .4l-9 5.5c-1.3.8-2 2-2 3.6 0 2 1.5 4.2 3.4 4.2.5 0 1-.2 1.7-.6l2-1.2v34.6c0 2.2 2.7 3.2 5.3 3.2 2.7 0 5.3-1 5.3-3.2v-43.2c0-2-2-3.3-4-3.3zm38.4 0c-9.4 0-16.7 4.4-16.7 16v18c0 11.8 8 16 17 16s17-4.2 17-16v-18c0-11.6-7-16-16-16zm6 34c0 4.8-2.2 7-6 7s-6-2-6-7v-18c0-4.6 2.2-6.7 6-6.7s6 2 6 6.8v18zm43.5-34c-9.3 0-16.6 4.4-16.6 16v18c0 11.8 7.3 16 16.6 16s16.8-4.2 16.8-16v-18c0-11.6-7-16-16-16zm6.2 34c0 4.8-2.3 7-6.2 7s-6-2-6-7v-18c0-4.6 2.2-6.7 6-6.7s6.2 2 6.2 6.8v18zm37-34c-1 0-1.5 0-2 .4l-9 5.5c-1.4.8-2 2-2 3.6 0 2 1.3 4.2 3.3 4.2.5 0 1-.2 1.7-.6l2-1.2v34.6c0 2.2 2.6 3.2 5.3 3.2s5.3-1 5.3-3.2v-43.2c0-2-2-3.3-4-3.3zm-368.8 61c-9.3 0-16.6 4.3-16.6 16v18c0 11.6 8 16 17 16 10 0 17-4.4 17-16v-18c0-11.7-7-16-17-16zm6.2 34c0 4.6-3 6.7-7 6.7s-6-2-6-6.7v-18c0-4.7 2-6.8 6-6.8s6 2 6 6.8v18zm41-34c-10 0-17 4.3-17 16v18c0 11.6 7 16 16 16s17-4.4 17-16v-18c0-11.7-8-16-17-16zm6 34c0 4.6-3 6.7-6 6.7-4 0-6-2-6-6.7v-18c0-4.7 2-6.8 6-6.8s6 2 6 6.8v18zm41-34c-10 0-17 4.3-17 16v18c0 11.6 7 16 16 16s16-4.4 16-16v-18c0-11.7-7-16-17-16zm6 34c0 4.6-3 6.7-6 6.7s-6-2-6-6.7v-18c0-4.7 2-6.8 6-6.8s6 2 6 6.8v18zm41-34c-10 0-17 4.3-17 16v18c0 11.6 7 16 16 16s16-4.4 16-16v-18c0-11.7-8-16-17-16zm6 34c0 4.6-2 6.7-6 6.7s-6-2-6-6.7v-18c0-4.7 2-6.8 6-6.8s6 2 6 6.8v18zm41-34c-10 0-17 4.3-17 16v18c0 11.6 7 16 16 16 10 0 17-4.4 17-16v-18c0-11.7-7-16-17-16zm6 34c0 4.6-2 6.7-6 6.7s-6-2-6-6.7v-18c0-4.7 2-6.8 6-6.8s6 2 6 6.8v18zm35-34.3c-1 0-2 .2-2 .6l-9 5.4c-1 .8-2 2.2-2 3.6 0 2 1 4.2 3 4.2 0 0 1 0 2-.5l2-1.3v34.6c0 2.2 2 3.3 5 3.3s5-2 5-4v-43c0-2-3-4-5-4zm36 .2c-9 0-17 4.4-17 16v18c0 11.7 7 16 16 16s16.5-4.3 16.5-16v-18c0-11.6-7.5-16-17-16zm6 34c0 4.7-2 6.8-6 6.8s-6-2-6-6.7v-18c0-4.7 2-6.8 6-6.8s6 2 6 6.8v18zm35-34.2c-1 0-1 .2-2 .6l-9 5.4c-1 .8-2 2.2-2 3.6 0 2 1 4.2 3 4.2 0 0 1 0 2-.5l2-1.3v34.6c0 2.2 2 3.3 5 3.3s5-2 5-4v-43c0-2-2-4-4-4zm30 0c-1 0-2 .2-2 .6l-9 5.4c-1 .8-2 2.2-2 3.6 0 2 1 4.2 3 4.2 0 0 1 0 1-.5l2-1.3v34.6c0 2.2 2.5 3.3 5 3.3s5-2 5-4v-43c0-2-2.5-4-4.7-4zm30 0c-1 0-2 .2-2 .6l-9 5.4c-2 .8-2 2.2-2 3.6 0 2 1 4.2 3 4.2 0 0 1 0 1-.5l2-1.3v34.6c0 2.2 3 3.3 5.4 3.3s5-2 5-4v-43c0-2-2.5-4-4.7-4zM72 222c-.8 0-1.5 0-2 .4l-9 5.4c-1.4.8-2 2.2-2 3.6 0 2 1.4 4.2 3.3 4.2.5 0 1 0 1.7-.5l2-1v35c0 2 2.7 4 5.3 4s5.3-1 5.3-3v-44c0-2-2.8-3-5-3zm31.7 0c-.7 0-1.4 0-2 .4l-9 5.4c-1.2.8-1.8 2.2-1.8 3.6 0 2 1 4.2 3 4.2 0 0 1 0 1-.5l2-1v35c0 2 2 4 5 4s5-1 5-3v-44c0-2-3-3-5-3zm38.4 0c-9 0-16 4.4-16 16v18c0 11.8 7 16 17 16s17-4.2 17-16v-18c0-11.6-7-16-16-16zm6 34c0 4.8-2 7-6 7s-6-2.2-6-7v-18c0-4.6 3-6.7 6-6.7s6 2 6 6.8v18zm37-34s-1 0-2 .4l-9 5.4c-1 .8-2 2.2-2 3.6 0 2 2 4.2 4 4.2 0 0 1 0 2-.5l2-1v35c0 2 3 4 6 4s5-1 5-3v-44c0-2-2-3-4-3zm39 0c-9 0-16 4.4-16 16v18c0 11.8 7 16 17 16s17-4.2 17-16v-18c0-11.6-7-16-16-16zm6 34c0 4.8-2 7-6 7s-6-2.2-6-7v-18c0-4.6 2-6.7 6-6.7s6 2 6 6.8v18zm44-34c-9 0-16 4.4-16 16v18c0 11.8 8 16 17 16 10 0 17-4.2 17-16v-18c0-11.6-7-16-16-16zm6 34c0 4.8-2 7-6 7s-6-2.2-6-7v-18c0-4.6 3-6.7 6-6.7s6 2 6 6.8v18zm37-34s-1 0-2 .4l-9 5.4c-1 .8-2 2.2-2 3.6 0 2 2 4.2 4 4.2 1 0 1 0 2-.5l2-1v35c0 2 3 4 6 4s5-1 5-3v-44c0-2-2-3-4-3zm39 0c-9 0-16 4.4-16 16v18c0 11.8 8 16 17 16s17-4.2 17-16v-18c0-11.6-7-16-16-16zm6 34c0 4.8-2 7-6 7s-6-2.2-6-7v-18c0-4.6 2-6.7 6-6.7s6 2 6 6.8v18zm44-34c-9 0-16 4.4-16 16v18c0 11.8 8 16 17 16s17-4 17-16v-18c0-11.6-7.2-16-16.6-16zm6 34c0 4.8-2 7-6 7s-6-2.2-6-7v-18c0-4.6 2-6.7 6-6.7s6 2 6 6.8v18zm37-34c-1 0-1 0-2 .4l-9 5.4c-1 .8-2 2.2-2 3.6 0 2 2 4.2 4 4.2 1 0 1 0 2-.5l2-1v35c0 2 3 4 5.7 4s5.5-1 5.5-3v-44c0-2-2-3-4-3zM79 283c-9.4 0-16.7 4.2-16.7 16v18c0 11.6 7.3 16 16.7 16 9.3 0 16.7-4.4 16.7-16v-18c0-11.8-7.4-16-16.7-16zm6 34c0 4.6-2.2 6.7-6 6.7s-6-2-6-6.8v-18c0-5 2.2-7 6-7s6 2 6 7v18zm35-34.2c-.8 0-1.4 0-2 .4l-9 5.5c-1.3.8-2 2-2 3.6 0 2 1.4 4.2 3.4 4.2.5 0 1-.2 1.7-.6l2-2v35c0 2 3 3 6 3s6-1 6-3v-43c0-2-2-3-4-3zm36.3.2c-9.3 0-16.6 4.2-16.6 16v18c0 11.6 7.3 16 16.6 16 9.4 0 16.7-4.4 16.7-16v-18c0-11.8-7.3-16-16.7-16zm6 34c0 4.6-2.2 6.7-6 6.7s-6-2-6-6.8v-18c0-5 2.2-7 6-7s6 2 6 7v18zm35-34.2c-.7 0-1.4 0-2 .4l-9 5.5c-1.2.8-2 2-2 3.6 0 2 1.5 4.2 3.5 4.2.5 0 1-.2 1.7-.6l2-2v35c0 2 2.6 3 5.2 3 2.7 0 5.3-1 5.3-3v-43c0-2-2.5-3-4.6-3zm36.4.2c-9.4 0-16.6 4.2-16.6 16v18c0 11.6 8 16 17 16s17-4.4 17-16v-18c0-11.8-7-16-16-16zm6 34c0 4.6-2.2 6.7-6 6.7s-6-2-6-6.8v-18c0-5 2.2-7 6-7s6 2 6 7v18zm35-34.2c-.7 0-1.4 0-2 .4l-9 5.5c-1.3.8-2 2-2 3.6 0 2 1.5 4.2 3.4 4.2 1 0 2-.2 2-.6l2-2v35c0 2 3 3 6 3s6-1 6-3v-43c0-2-2-3-4-3zm36.3.2c-9.3 0-16.6 4.2-16.6 16v18c0 11.6 7.3 16 16.7 16 10 0 17-4.4 17-16v-18c0-11.8-7-16-16-16zm6.2 34c0 4.6-2.3 6.7-6 6.7s-6.2-2-6.2-6.8v-18c0-5 2.3-7 6-7 4 0 6.2 2 6.2 7v18zm34.8-34.2c-.7 0-1.3 0-2 .4l-9 5.5c-1.2.8-1.8 2-1.8 3.6 0 2 1.3 4.2 3.3 4.2.5 0 1-.2 1.7-.6l2-2v35c0 2 2.6 3 5.3 3s5.3-1 5.3-3v-43c0-2-2.5-3-4.7-3zm36.4.2c-9.4 0-16.6 4.2-16.6 16v18c0 11.6 7.2 16 16.6 16 9.4 0 16.7-4.4 16.7-16v-18c0-11.8-7-16-16-16zm6 34c0 4.6-2.2 6.7-6 6.7s-6-2-6-6.8v-18c0-5 2.2-7 6-7s6 2 6 7v18zm41.6-34c-9.4 0-16.7 4.2-16.7 16v18c0 11.6 7.3 16 16.7 16s16.7-4.4 16.7-16v-18c0-11.8-7.4-16-16.7-16zm6 34c0 4.6-2.2 6.7-6 6.7s-6-2-6-6.8v-18c0-5 2.2-7 6-7s6 2 6 7v18z"/></svg>