<svg xmlns="http://www.w3.org/2000/svg" viewBox="0 0 512 512"><path d="M504.4 57.3H7.6C3.4 57.3 0 60.7 0 65v382c0 4.3 3.4 7.7 7.6 7.7h357c4 0 7.5-3.4 7.5-7.6s-3-7-7-7H15V138h55c4.2 0 7.6-3.6 7.6-7.8s-3.4-7.6-7.6-7.6H15.2v-50h481.6v49.8H105.5c-4.2 0-7.6 3.4-7.6 7.6 0 4.2 3 7.6 7 7.6h391v302h-96c-4.6 0-8 3.5-8 7.7s3.4 8 7.6 8H504c4.3 0 7.7-3.4 7.7-7.6V65c0-4.3-3.5-7.7-7.7-7.7z"/><path d="M204 312l-37-24.5 37-24.4c1.6-1 2.7-3 2.7-5 0-5-4.8-8-8.5-8-1 0-2 0-2.7 1L149 281c-2.6 2-4 5-4 7.2s1.4 5.3 4 7l46.5 30.5c.7.5 1.8.6 2.7.6 3.7 0 8.5-3.7 8.5-8.6 0-2.4-1-4.4-2.7-5zm84.3-101.5c-2.3 0-4.2 1-5.3 3.2l-65 130c-.4.8-.5 1.7-.5 2.6 0 3.2 2.8 6.5 6.8 6.5 2.5 0 4.8-1.2 6-3.3L295 220c.6-.8.8-1.7.8-2.8 0-4-4-6.7-7.5-6.7zm75.7 69.8L317.5 250c-.7-.6-1.6-.8-2.5-.8-4 0-8.5 4-8.5 8.8 0 2 1 4 2.5 5l37.3 24.5L309 312c-1.4.8-2.5 2.8-2.5 5 0 5 4.6 8.7 8.5 8.7 1 0 1.8 0 2.5-.7l46.5-30.4c2.8-1.8 4-4.8 4-7 0-2.4-1.3-5.5-4-7.3zM466 91.5c-2.8 2.4-3.5 6.8-1.4 10 3.8 5.5 12.6 3.8 13.8-2.8 1.3-6.8-7-11.7-12.3-7.2zm-41.2 2c-1.6-3-5-4.3-8.2-3.6-3.2 0-5.6 3-6 6-.2 3 1.3 6 4 7 2.8 1.4 6.6 1 9-1.5 2.4-2.3 3-6 1.2-9zm24-2.5c-2.8-2-6.6-1.6-9.2.6-2.8 2.4-3.5 6.8-1.3 10 3.6 5.3 12.2 3.8 13.7-2.6.7-3-.6-6.3-3.2-8z"/></svg>