<svg xmlns="http://www.w3.org/2000/svg" viewBox="0 0 512 512"><path d="M511.6 197.6c0-.8-.2-2-.5-2.6 0-3-2-5.5-5-7.3l-73-51V82.3c0-7.3-6-13.2-13-13.2h-84l-72-49c-4.4-3-10.3-3-15 0l-72 50H93c-7.4 0-13.3 6-13.3 13.3v54l-74 50C2 189.6 0 193.6 0 197.7v.3l.4 284c0 3 1.4 7 3.8 9 2.5 2 5.8 4 9.3 4l485.5-1c7 0 13-6 13-13l-.8-284zm-79-29l42 29.2-42 29.2v-58.3zM256 46l33.3 23h-66.8L256 46zM105.5 95.2h301v150l-101 70-41.3-31.8v-.2c-4.7-3.4-11.3-3.5-16 .2l-41.5 32.2-101.2-70V95.4zM79.3 168v59.6l-43-29.8 43-29.8zm-53 55L185 332.4l-158.5 123-.2-232.4zM52 469l204-158.7 203.6 158-408 .5zm275-136.7l158.4-110 .3 233-158.6-123z"/><path d="M344.8 147.7H167.2c-7.2 0-13 6-13 13S160 174 167 174h177.6c7.2 0 13-6 13-13.2s-5.8-13-13-13zm0 68.3H167.2c-7.2 0-13 5.8-13 13s5.8 13 13 13h177.6c7.2 0 13-5.8 13-13s-5.8-13-13-13z"/></svg>