<svg xmlns="http://www.w3.org/2000/svg" width="121" height="118" style="isolation:isolate"><defs><clipPath id="a"><path d="M0 0h121v118H0z"/></clipPath></defs><g clip-path="url(#a)"><path fill="#191717" fill-rule="evenodd" d="M0 0c-2.7 60.3 0 84.6 0 118 30.3 0 18.6.3 45.5 0v-14.4c-16.8 3.7-20.3-7-20.3-7-2.7-7-6.7-9-6.7-9C13 84 19 84 19 84c6 .6 9 6.4 9 6.4 5 9.2 14 6.6 17.2 5 .5-4 2-6.6 3.7-8-13-1.6-27-7-27-30 0-6.5 2.2-12 6-15.8-.6-1.7-2.7-8 .6-16 0 0 5-1.8 16.4 6 4.8-1.3 10-2 15-2s10.4.7 15 2c11.6-7.8 16.7-6 16.7-6 3.3 8 1.2 14.3.6 16 3.8 4 6 9.3 6 16 .4 23.2-13.6 28.2-27 29.8 2.3 2 4 5.4 4 11V118c24.2 0 25.4 2 45.3 0 0-34 .5-103 .3-118H0z"/></g></svg>