<svg xmlns="http://www.w3.org/2000/svg" viewBox="0 0 512 512"><g fill="#F2F2F2"><path d="M485 122.8L452.3 451H59.7L33.4 129.2 256 253.8"/><path d="M474 61L256 265.7 38 61h218"/></g><path fill="#F14336" d="M59.7 155.5V451H24c-13 0-24-10.8-24-24V112l39 1 20.7 42.5z"/><path fill="#D32E2A" d="M512 112v315c0 13.2-10.8 24-24.2 24h-35.5V155.5L472 109l40 3z"/><path fill="#F14336" d="M512 85v27l-59.7 43.5-196.3 143-196.3-143L0 112V85c0-13 10.8-24 24-24h14l218 158.8L474 61h13.8c13.4 0 24.2 10.8 24.2 24z"/><path fill="#D32E2A" d="M59.7 155.5L0 146.2V112"/></svg>