<svg xmlns="http://www.w3.org/2000/svg" width="128" height="128" style="isolation:isolate"><defs><clipPath id="a"><path d="M0 0h128v128H0z"/></clipPath></defs><g clip-path="url(#a)"><clipPath id="b"><path fill="#FFF" d="M0 0h128v128H0z"/></clipPath><g clip-path="url(#b)"><mask id="c"><path fill="#fff" d="M3 16h122c1.7 0 3 1.3 3 3v90c0 1.7-1.3 3-3 3H3c-1.7 0-3-1.3-3-3V19c0-1.7 1.3-3 3-3z"/></mask><path fill="none" stroke="#000" stroke-width="6" stroke-miterlimit="3" d="M3 16h122c1.7 0 3 1.3 3 3v90c0 1.7-1.3 3-3 3H3c-1.7 0-3-1.3-3-3V19c0-1.7 1.3-3 3-3z" mask="url(#c)" vector-effect="non-scaling-stroke" stroke-linejoin="bevel"/><path d="M1 35h126v3H1z"/><mask id="d"><path fill="#fff" d="M117 27c0-1 1-2 2-2s2 1 2 2-1 2-2 2-2-1-2-2z"/></mask><path stroke="#000" stroke-opacity="100" stroke-width="6" stroke-miterlimit="3" d="M117 27c0-1 1-2 2-2s2 1 2 2-1 2-2 2-2-1-2-2z" mask="url(#d)" vector-effect="non-scaling-stroke" stroke-linejoin="bevel"/><mask id="e"><path fill="#fff" d="M109 27c0-1 1-2 2-2s2 1 2 2-1 2-2 2-2-1-2-2z"/></mask><path stroke="#000" stroke-opacity="100" stroke-width="6" stroke-miterlimit="3" d="M109 27c0-1 1-2 2-2s2 1 2 2-1 2-2 2-2-1-2-2z" mask="url(#e)" vector-effect="non-scaling-stroke" stroke-linejoin="bevel"/><mask id="f"><path fill="#fff" d="M101 27c0-1 1-2 2-2s2 1 2 2-1 2-2 2-2-1-2-2z"/></mask><path stroke="#000" stroke-opacity="100" stroke-width="6" stroke-miterlimit="3" d="M101 27c0-1 1-2 2-2s2 1 2 2-1 2-2 2-2-1-2-2z" mask="url(#f)" vector-effect="non-scaling-stroke" stroke-linejoin="bevel"/><path fill="none" stroke="#000" stroke-opacity="100" stroke-width="3" stroke-miterlimit="3" d="M46.7 91.2L29 73.5m17.7-17.7L29 73.5m52.3-17.7L99 73.5M81.3 91.2L99 73.5" vector-effect="non-scaling-stroke" stroke-linecap="round"/><path stroke="#000" stroke-opacity="100" stroke-width="3" stroke-miterlimit="3" d="M51.5 101l25-55" vector-effect="non-scaling-stroke" stroke-linecap="round"/></g></g></svg>