<svg xmlns="http://www.w3.org/2000/svg" style="isolation:isolate" viewBox="0 0 47.7 47.7"><defs><clipPath id="a"><path d="M0 0h47.7v47.7H0z"/></clipPath></defs><g clip-path="url(#a)"><path fill="#0977B6" d="M44 0H3.5C1.7 0 0 1.5 0 3.5v40.7c0 2 1.6 3.5 3.5 3.5h40.7c2 0 3.5-1.6 3.5-3.5V3.5C47.7 1.5 46 0 44 0z"/><path fill="#FFF" d="M10.6 6.6c2.3 0 4 2 4 4 0 2.3-1.7 4.2-4 4.2s-4-2-4-4.6c0-2.2 1.8-4 4-4M7 18h7v22.7H7V18m11.6 0h6.7v3c1-1.8 3.4-3.7 7-3.7 7 0 8.3 4.7 8.3 11v12.4h-7.4V29.4c0-2.7 0-6-3.7-6s-4.3 2.8-4.3 5.8v11.5h-7V18"/></g></svg>