<svg xmlns="http://www.w3.org/2000/svg" width="47" height="47" style="isolation:isolate"><defs><clipPath id="a"><path d="M0 0h47v47H0z"/></clipPath></defs><g clip-path="url(#a)"><clipPath id="b"><path fill="#FFF" d="M0 0h47v47H0V0z"/></clipPath><g clip-path="url(#b)"><path fill="#0977B6" d="M47 0H0v47h47V0z"/><path fill="#FFF" d="M10.4 6.5c2.3 0 4 2 4 4 0 2.2-1.7 4-4 4-2.2 0-4-2-4-4.4 0-2 2-3.3 4-3.3M7 17.7h6.8V40h-7V17.8zm11.3 0H25v3c1-1.8 3.3-3.7 6.8-3.7 7 0 8.2 4.7 8.2 11v12h-7.3V29c0-2.7 0-6-3.6-6s-4 3-4 6v11h-7V17.8"/></g></g></svg>