<svg xmlns="http://www.w3.org/2000/svg" viewBox="0 0 400 400"><style>.st0{fill:#1DA1F2;} .st1{fill:#FFFFFF;}</style><path id="Dark_Blue" d="M0 0h400v400H0z" class="st0"/><path id="Logo__x2014__FIXED" d="M153.6 301.6c94.3 0 146-78.2 146-146 0-2 0-4.3-.2-6.5 10-7 18.7-16 25.6-26.3-9.2 4-19 6.8-29.5 8 10.6-6.2 18.7-16.3 22.6-28.3-9.6 6-20.6 10-32.3 12.4-9.4-10-22.7-16.2-37.4-16.2-28.2 0-51.2 23-51.2 51.3 0 4 .6 8 1.4 11.6C156 159.6 118 139 92.8 108c-4.4 7.5-7 16.3-7 25.7 0 17.8 9.2 33.5 23 42.7-8.5-.3-16.4-2.6-23.3-6.4v.6c0 24.8 17.8 45.6 41.2 50.3-4.3 1-8.8 1.5-13.5 1.5-3.2 0-6.4-.3-9.5-1 6.6 20.5 25.6 35.3 48 35.7-17.6 13.8-39.7 22-63.7 22-4 0-8.2-.2-12.2-.7 22.7 14.4 49.7 23 78.6 23" class="st1"/></svg>